<svg xmlns="http://www.w3.org/2000/svg" xmlns:xlink="http://www.w3.org/1999/xlink" width="1280" height="480" viewBox="0 0 1280 480" preserveAspectRatio="none"><defs><clipPath id="b"><path fill="none" d="M0 0h1280v480h-1280z"/></clipPath><linearGradient id="a" x1="898.016" y1="128.34" x2="918.224" y2="122.925" gradientUnits="userSpaceOnUse"><stop offset="0" stop-opacity="0"/><stop offset="1" stop-opacity=".15"/></linearGradient><linearGradient id="c" x1="941.531" y1="120.347" x2="915.427" y2="124.95" xlink:href="#a"/><linearGradient id="d" x1="683.964" y1="312.911" x2="703.203" y2="307.756" xlink:href="#a"/><linearGradient id="e" x1="732.555" y1="305.003" x2="700.455" y2="310.663" xlink:href="#a"/><linearGradient id="f" x1="803.73" y1="214.937" x2="798.181" y2="235.645" xlink:href="#a"/><linearGradient id="g" x1="583.484" y1="266.806" x2="608.128" y2="262.461" xlink:href="#a"/></defs><title>Zeichenfläche 1</title><g clip-path="url(#b)"><path fill="#dde2e4" d="M774.667 226.5l42.279 14.173 353.721 118.577-56.334 55.25-420.666-142.333-16.667 14.666-88.999-30.333 16.666-13.667-107.334-36.666 62.667-49.667 86.667 28.667 37-6.667 206-171 685.333 212.667v78.333l-666-210-138 117.667 3.667 20.333z"/><path fill="#84898b" d="M1170.667 359.25l11.333 61.917-55.333 54.333-14.667-34.667 2.333-26.333 56.334-55.25z"/><path fill="#97999b" d="M1114.333 414.5l12.334 61-416.667-142-16.333-61.333 420.666 142.333z"/><path fill="#919597" d="M693.667 272.167l16.333 61.333-16.5 15-16.5-61.667 16.667-14.666z"/><path fill="#9ea0a1" d="M693.5 348.5l-87.5-29.667-6.49-22.476-11.509-39.857 88.999 30.333 16.5 61.667zM599.51 296.357l-84.51-28.857-17.667-61.333 107.334 36.666-16.666 13.667 11.509 39.857z"/><path fill="#8e9294" d="M816.946 240.673l106.054-91.506-14-60.667-138 117.667 3.667 20.333 42.279 14.173z"/><path fill="#828386" d="M1575 298.5v60.75l-652-210.083-14-60.667 666 210z"/><path fill="url(#a)" d="M909 88.5l-16.419 14 14.659 60.265 15.76-13.598-14-60.667z"/><path fill="url(#c)" d="M937.5 97.486l-28.5-8.986 14 60.667 24.133 7.776-9.633-59.457z"/><path fill="url(#d)" d="M693.667 272.167l16.333 61.333-16.5 15-16.5-61.667 16.667-14.666z"/><path fill="url(#e)" d="M693.667 272.167l31.232 10.567 14.444 60.766-29.343-10-16.333-61.333z"/><path fill="url(#f)" d="M771 206.167l3.667 20.333 42.279 14.173 19.469-16.798-65.415-17.708z"/><path fill="url(#g)" d="M588.001 256.5l16.666-13.667-23.437-8.006 6.771 57.6 11.509 3.93-11.509-39.857z"/><path opacity=".15" d="M594.434 294.624l-7.021-24.315 2.68-4.569 9.417 30.617-5.076-1.733z"/></g></svg>